<?xml version="1.0" standalone="no"?>
<!DOCTYPE svg PUBLIC "-//W3C//DTD SVG 20010904//EN"
 "http://www.w3.org/TR/2001/REC-SVG-20010904/DTD/svg10.dtd">
<svg version="1.0" xmlns="http://www.w3.org/2000/svg"
 width="700.000000pt" height="700.000000pt" viewBox="0 0 700.000000 700.000000"
 preserveAspectRatio="xMidYMid meet">
<metadata>
Created by potrace 1.11, written by Peter Selinger 2001-2013
</metadata>
<g transform="translate(0.000000,700.000000) scale(0.100000,-0.100000)"
fill="#000000" stroke="none">
<path d="M3298 6996 c-1 -2 -41 -6 -88 -9 -173 -12 -388 -48 -581 -97 -741
-189 -1416 -633 -1893 -1244 -332 -426 -577 -968 -672 -1481 -9 -49 -17 -97
-19 -105 -2 -9 -6 -43 -10 -75 -4 -33 -9 -69 -11 -80 -19 -100 -26 -557 -11
-710 8 -82 24 -207 33 -260 3 -16 7 -39 8 -50 2 -11 6 -33 10 -50 3 -16 8 -39
10 -51 57 -301 218 -730 373 -992 24 -41 43 -76 43 -79 0 -13 197 -298 262
-379 367 -459 813 -804 1341 -1038 68 -30 150 -64 183 -75 32 -11 91 -32 129
-45 153 -54 474 -128 620 -142 33 -3 63 -8 66 -10 29 -17 547 -25 714 -10 168
14 366 47 510 82 55 14 107 27 115 29 45 10 260 83 360 122 134 53 346 155
442 213 37 22 69 40 72 40 11 0 266 177 351 243 167 130 334 290 505 482 165
185 376 511 502 775 145 304 262 696 303 1010 9 73 16 123 21 155 9 56 11 519
3 605 -13 149 -23 235 -33 285 -2 11 -11 61 -21 110 -138 740 -535 1438 -1106
1944 -133 118 -142 126 -241 199 -173 128 -326 222 -523 321 -174 87 -421 186
-540 217 -5 2 -41 12 -80 23 -68 21 -260 65 -320 75 -55 9 -239 35 -295 41
-56 7 -525 16 -532 11z"/>
</g>
</svg>
