<?xml version="1.0" encoding="utf-8"?>
<!-- Generator: Adobe Illustrator 16.0.0, SVG Export Plug-In . SVG Version: 6.00 Build 0)  -->
<!DOCTYPE svg PUBLIC "-//W3C//DTD SVG 1.1//EN" "http://www.w3.org/Graphics/SVG/1.1/DTD/svg11.dtd">
<svg version="1.1" id="Layer_1" xmlns="http://www.w3.org/2000/svg" xmlns:xlink="http://www.w3.org/1999/xlink" x="0px" y="0px"
	 width="16.143px" height="13.119px" viewBox="0 0 16.143 13.119" enable-background="new 0 0 16.143 13.119" xml:space="preserve">
<path fill="#6AA9E7" d="M16.143,1.552c-0.596,0.264-1.231,0.441-1.901,0.522c0.684-0.41,1.209-1.059,1.454-1.833
	c-0.639,0.379-1.348,0.655-2.102,0.803C12.99,0.402,12.128,0,11.176,0c-2.139,0-3.71,1.994-3.227,4.065
	c-2.751-0.138-5.192-1.457-6.825-3.46c-0.868,1.489-0.45,3.436,1.024,4.422c-0.542-0.017-1.054-0.166-1.5-0.415
	c-0.036,1.535,1.064,2.97,2.657,3.289C2.839,8.028,2.328,8.057,1.809,7.958c0.421,1.316,1.644,2.272,3.094,2.3
	C3.511,11.35,1.756,11.836,0,11.63c1.465,0.94,3.207,1.489,5.077,1.489c6.148,0,9.623-5.194,9.411-9.852
	C15.137,2.8,15.697,2.216,16.143,1.552z"/>
</svg>
