<?xml version="1.0" encoding="UTF-8"?>
<svg width="11px" height="12px" viewBox="0 0 11 12" version="1.1" xmlns="http://www.w3.org/2000/svg" xmlns:xlink="http://www.w3.org/1999/xlink">
    <!-- Generator: Sketch 43.2 (39069) - http://www.bohemiancoding.com/sketch -->
    <title>trophy</title>
    <desc>Created with Sketch.</desc>
    <defs></defs>
    <g id="Page-1" stroke="none" stroke-width="1" fill="none" fill-rule="evenodd">
        <g id="Desktop-HD" transform="translate(-977.000000, -501.000000)" fill-rule="nonzero" fill="#555555">
            <g id="trophy" transform="translate(977.000000, 501.000000)">
                <path d="M6.108,8.1336 C6.108,7.263 6.768,6.7812 7.8444,6.0684 C9.1608,5.1948 10.8,4.1094 10.8,1.5324 C10.8,1.3002 10.6098,1.113 10.3746,1.113 L8.3166,1.113 C8.0262,0.5754 7.1592,0 5.4,0 C3.6396,0 2.7738,0.5754 2.4828,1.113 L0.4242,1.113 C0.1896,1.113 0,1.3008 0,1.5324 C0,4.1094 1.638,5.1948 2.9556,6.0678 C4.032,6.7806 4.692,7.2624 4.692,8.133 L4.692,8.9196 C3.5616,9.045 2.7306,9.4632 2.7306,9.9612 C2.7306,10.5576 3.9258,11.0406 5.4,11.0406 C6.8742,11.0406 8.0694,10.5576 8.0694,9.9612 C8.0694,9.4632 7.2384,9.045 6.108,8.9196 L6.108,8.1336 Z M7.7742,5.1 C8.1138,4.3806 8.3838,3.4044 8.427,1.9524 L9.933,1.9524 C9.789,3.573 8.8158,4.3908 7.7742,5.1 Z M5.4,0.7356 C7.0392,0.7344 7.6794,1.4046 7.6788,1.653 C7.6788,1.9038 7.0392,2.5728 5.4,2.574 C3.7608,2.5734 3.1206,1.9044 3.1206,1.6536 C3.12,1.4052 3.7608,0.7344 5.4,0.7356 Z M0.867,1.9524 L2.3724,1.9524 C2.4162,3.4044 2.685,4.3806 3.0258,5.1 C1.9842,4.3908 1.0104,3.573 0.867,1.9524 Z" id="Shape"></path>
            </g>
        </g>
    </g>
</svg>