<?xml version="1.0" encoding="UTF-8"?>
<svg width="13px" height="10px" viewBox="0 0 13 10" version="1.1" xmlns="http://www.w3.org/2000/svg" xmlns:xlink="http://www.w3.org/1999/xlink">
    <!-- Generator: Sketch 43.2 (39069) - http://www.bohemiancoding.com/sketch -->
    <title>archive</title>
    <desc>Created with Sketch.</desc>
    <defs></defs>
    <g id="Page-1" stroke="none" stroke-width="1" fill="none" fill-rule="evenodd">
        <g id="Desktop-HD" transform="translate(-947.000000, -502.000000)" fill-rule="nonzero" fill="#555555">
            <g id="archive" transform="translate(947.000000, 502.000000)">
                <path d="M8.61319997,0 L3.63632497,0 C3.63632497,0 3.01382497,0 3.01382497,0.625 L9.23569997,0.625 C9.23569997,0 8.61319997,0 8.61319997,0 Z M10.480075,1.875 C10.480075,1.25 9.85819997,1.25 9.85819997,1.25 L2.39194997,1.25 C2.39194997,1.25 1.77007497,1.25 1.77007497,1.875 L1.77007497,2.5 L10.480075,2.5 L10.480075,1.875 Z M11.723825,2.5 L11.356325,2.13 L11.356325,3.125 L0.893824969,3.125 L0.893824969,2.13 C0.893824969,2.13 0.893824969,2.13 0.525699969,2.5 C0.157574969,2.87 -0.106175031,2.96875 0.0419499686,3.75 C0.189449969,4.52875 0.903824969,8.7975 1.01007497,9.375 C1.12632497,10.00875 1.77069997,10 1.77069997,10 L10.4807,10 C10.4807,10 11.12445,10.00875 11.241325,9.375 C11.347575,8.7975 12.061325,4.52875 12.20945,3.75 C12.356325,2.96875 12.092575,2.87 11.723825,2.5 Z M8.62507497,6.248125 C8.62507497,6.594375 8.34444997,6.875 7.99819997,6.875 L4.25194997,6.875 C3.90569997,6.875 3.62507497,6.594375 3.62507497,6.248125 L3.62507497,5 L4.25007497,5 L4.25007497,6.25 L8.00007497,6.25 L8.00007497,5 L8.62507497,5 L8.62507497,6.248125 Z" id="Shape"></path>
            </g>
        </g>
    </g>
</svg>